<?xml version="1.0" encoding="utf-8"?>
<!-- Generator: Adobe Illustrator 26.0.1, SVG Export Plug-In . SVG Version: 6.00 Build 0)  -->
<svg version="1.1" id="Layer_1" xmlns="http://www.w3.org/2000/svg" xmlns:xlink="http://www.w3.org/1999/xlink" x="0px" y="0px"
	 viewBox="0 0 1080 1080" style="enable-background:new 0 0 1080 1080;" xml:space="preserve">
<style type="text/css">
	.st0{fill:#00A651;}
</style>
<g>
	<g>
		<path class="st0" d="M403.55,547.42c0.78,2.05,1.21,4.28,1.21,6.61c0,2.33-0.42,4.55-1.21,6.6c-0.01,0.04-0.02,0.07-0.04,0.11
			c-0.14,0.32-0.28,0.63-0.45,0.94c-2.98,5.81-8.77,9.75-15.44,9.75h-58.07c-1.18,0-1.92-1.24-1.33-2.23l5.09-8.57l8.78-14.8
			c0.27-0.46,0.78-0.74,1.33-0.74h9.17c1.18,0,1.92,1.24,1.33,2.23l-6.57,11.08c-0.59,0.99,0.15,2.23,1.33,2.23h39
			c3.65,0,6.73-2.81,6.77-6.36c0-0.03,0-0.05,0-0.08c0-3.36-2.12-6.23-5.13-7.42c-0.96-0.38-1.58-0.81-2.68-0.81
			c-0.76,0-2.11-0.19-2.91-0.05c-0.14,0.02-0.27,0.04-0.41,0.04l-11.58-0.61c0.1-0.21-0.1,0.2,0,0c-4.97-0.39-9.36-2.84-12.3-6.49
			c-0.82-1.01-1.52-2.11-2.09-3.28v-0.01c-1.16-2.33-1.8-4.94-1.8-7.71c0-1.79,0.27-3.53,0.77-5.16c0-0.01,0.01-0.01,0.01-0.01
			l1.16-2.58l0,0l2.93-4.31c0.05-0.08,0.11-0.15,0.18-0.22c3.18-3.24,7.63-5.25,12.54-5.25c1.05,0,2.25-0.19,3.25-0.01l0,0
			l9.53,0.01c1.18,0,1.92-1.24,1.33-2.23l-4.77-8.04l-5.91-9.95c-0.27-0.46-0.27-1.03,0-1.49l4.58-7.72c0.59-0.99,2.06-0.99,2.65,0
			l5.02,8.46l12.46,20.97l4.52,7.61c0.59,0.99-0.15,2.23-1.33,2.23l-10.06,0l-5.47-0.01l-14.31-0.01c-0.05-0.01-0.11-0.01-0.17-0.01
			c-0.11-0.01-0.22-0.01-0.34-0.01s-0.22,0-0.33,0.01c-0.05,0-0.11,0-0.16,0.01c-0.01-0.01-0.01,0-0.01,0
			c-1.36,0.08-2.63,0.48-3.73,1.12c-2.36,1.38-3.94,3.87-3.99,6.73v0.01c-0.01,0.05-0.01,0.09-0.01,0.14c0,3.36,2.12,6.24,5.14,7.43
			c0.96,0.38,2,0.59,3.1,0.59s-0.96,0.38,0,0l13.07-0.59c0.57,0,1.14,0.03,1.7,0.08c6.67,0.68,12.25,5.33,14.64,11.71
			c0.01,0.02,0.01,0.03,0.02,0.05H403.55z"/>
		<path class="st0" d="M433.5,571.43h-11.54c-0.18,0-0.35-0.09-0.44-0.25l-14.85-25.01l-6.79-11.43c-0.19-0.33,0.05-0.74,0.44-0.74
			h11.82l-0.01-0.01h0.01l7.58,12.77l14.2,23.92C434.13,571.03,433.89,571.43,433.5,571.43z"/>
	</g>
	<g>
		<g>
			<path class="st0" d="M477.89,522.75c-0.21,3.28-0.37,7.32-0.37,13.98v27.62c0,10.21-1.84,17.46-6.42,22.07
				c-4.53,4.52-10.81,5.92-16.79,5.92c-5.51,0-11.38-1.34-15.1-3.86l2.36-9.39c2.8,1.88,7.43,3.76,12.66,3.76
				c7.13,0,12.47-4.23,12.47-14.71v-4.16h-0.18c-2.47,4.25-6.89,7.14-12.64,7.14c-10.75,0-18.41-10.01-18.41-23.75
				c0-16.06,9.26-25.72,19.63-25.72c6.66,0,10.54,3.55,12.62,7.58h0.18l0.4-6.48H477.89z M466.56,542.28c0-1.18-0.1-2.33-0.34-3.32
				c-1.16-4.52-4.29-7.92-8.97-7.92c-6.08,0-10.66,5.97-10.66,15.92c0,8.27,3.73,14.99,10.61,14.99c4.12,0,7.62-2.98,8.87-7.46
				c0.35-1.28,0.49-2.93,0.49-4.32V542.28z"/>
			<path class="st0" d="M489.3,538.4c0-6.52-0.12-11.32-0.36-15.65h9.5l0.41,9.25h0.31c2.14-6.86,7.2-10.35,11.88-10.35
				c1.07,0,1.7,0.05,2.58,0.27v11.59c-0.94-0.22-1.89-0.35-3.22-0.35c-5.23,0-8.85,3.73-9.83,9.31c-0.18,1.09-0.28,2.39-0.28,3.71
				v25.25H489.3V538.4z"/>
			<path class="st0" d="M532.66,509.12c0.01,3.68-2.37,6.64-6.25,6.64c-3.64,0-6.02-2.96-6.01-6.64c-0.01-3.75,2.46-6.65,6.14-6.65
				C530.27,502.47,532.62,505.34,532.66,509.12z M521.04,571.44v-48.69h10.98v48.69H521.04z"/>
			<path d="M544.02,558.01c3.54,2.29,8.92,4.29,14.52,4.29c7,0,10.92-3.69,10.92-9.2c0-5.09-3.04-8.09-10.64-11.18
				c-9.92-3.95-16.26-9.92-16.26-19.58c0-11.04,8.23-19.35,21.26-19.35c6.51,0,11.27,1.55,14.4,3.33l-2.62,9.93
				c-2.17-1.28-6.36-3.2-12-3.2c-6.97,0-9.92,4.16-9.92,8.12c0,5.17,3.47,7.6,11.49,11.03c10.44,4.47,15.45,10.35,15.45,20.04
				c0,10.84-7.28,20.25-22.78,20.25c-6.36,0-12.96-2.03-16.24-4.28L544.02,558.01z"/>
			<path d="M590.11,537.23c0-5.62-0.16-10.26-0.36-14.48h9.37l0.5,7.15h0.25c2.09-3.78,6.04-8.25,13.36-8.25
				c5.75,0,10.17,3.58,12.04,8.98h0.18c1.52-2.67,3.34-4.7,5.31-6.12c2.47-1.86,5.2-2.86,8.82-2.86c7.17,0,14.48,5.51,14.48,21.13
				v28.66h-10.7V544.5c0-8.11-2.5-12.88-7.74-12.88c-3.75,0-6.5,2.97-7.63,6.48c-0.35,1.18-0.56,2.73-0.56,4.11v29.21h-10.7v-28.15
				c0-6.86-2.44-11.65-7.49-11.65c-4.11,0-6.86,3.62-7.89,6.96c-0.39,1.24-0.54,2.69-0.54,4.07v28.78h-10.7V537.23z"/>
			<path d="M690.09,571.44l-0.75-5.42h-0.26c-2.63,3.84-7.17,6.52-12.79,6.52c-8.8,0-13.68-7.06-13.68-14.48
				c0-12.29,9.75-18.51,25.74-18.43v-0.81c0-3.2-1.13-8.52-8.81-8.49c-4.25,0-8.71,1.54-11.67,3.63l-2.17-7.99
				c3.28-2.24,8.9-4.32,15.73-4.32c13.92,0,17.89,9.85,17.89,20.53v17.53c0,4.43,0.2,8.72,0.67,11.73H690.09z M688.64,547.59
				c-7.74-0.12-15.15,1.72-15.15,9.13c0,4.77,2.79,7.01,6.25,7.01c4.38,0,7.53-3.17,8.59-6.74c0.24-0.85,0.31-1.82,0.31-2.68V547.59
				z"/>
			<path d="M710.95,538.4c0-6.52-0.12-11.32-0.36-15.65h9.5l0.41,9.25h0.31c2.14-6.86,7.2-10.35,11.88-10.35
				c1.07,0,1.7,0.05,2.57,0.27v11.59c-0.94-0.22-1.89-0.35-3.22-0.35c-5.23,0-8.85,3.73-9.83,9.31c-0.19,1.09-0.28,2.39-0.28,3.71
				v25.25h-10.98V538.4z"/>
			<path d="M755.24,508.81v13.94h10.44v9.17h-10.44v21.48c0,5.96,1.41,8.99,5.61,8.99c1.88,0,3.28-0.24,4.26-0.54l0.22,9.37
				c-1.65,0.69-4.53,1.26-7.98,1.26c-4.03,0-7.39-1.54-9.43-4.01c-2.36-2.8-3.43-7.28-3.43-13.66v-22.9h-6.19v-9.17h6.19v-11.03
				L755.24,508.81z"/>
		</g>
	</g>
</g>
</svg>
